<svg width="259" height="58" viewBox="0 0 259 58" fill="none" xmlns="http://www.w3.org/2000/svg">
<path d="M5.89454 56.581H0.310669V1.50403H21.0175C26.6014 1.50403 30.9961 2.93993 34.2016 5.81172C37.4589 8.63223 39.0875 12.504 39.0875 17.4271C39.0875 21.3758 38.0793 24.6835 36.0629 27.3502C34.0982 30.0169 31.3322 31.8374 27.7647 32.8117L39.6304 56.581H33.4261L22.1033 33.7348H5.89454V56.581ZM5.89454 6.50403V28.7348H21.1726C24.9986 28.7348 27.9715 27.7348 30.0913 25.7348C32.2628 23.7348 33.3486 21.0168 33.3486 17.581C33.3486 13.9912 32.2369 11.2476 30.0137 9.35018C27.7905 7.45275 24.7918 6.50403 21.0175 6.50403H5.89454Z" fill="black"/>
<path d="M61.7714 57.504C58.1522 57.504 54.9467 56.6835 52.1547 55.0425C49.4145 53.4015 47.2688 51.1194 45.7178 48.1963C44.1667 45.2733 43.3912 41.863 43.3912 37.9656C43.3912 34.1194 44.1408 30.7348 45.6402 27.8117C47.1913 24.8374 49.3111 22.5297 51.9996 20.8886C54.6881 19.1963 57.8161 18.3502 61.3836 18.3502C64.796 18.3502 67.7689 19.0938 70.3023 20.581C72.8874 22.0681 74.878 24.1451 76.2739 26.8117C77.7216 29.4271 78.4454 32.504 78.4454 36.0425V38.6579H46.3382L46.4933 34.8117H73.0942C73.0942 31.222 72.0085 28.3502 69.837 26.1963C67.7172 23.9912 64.8994 22.8886 61.3836 22.8886C58.7985 22.8886 56.5236 23.4784 54.5589 24.6579C52.6459 25.8374 51.1724 27.5297 50.1383 29.7348C49.1043 31.8886 48.5873 34.4527 48.5873 37.4271C48.5873 42.3502 49.7247 46.1707 51.9996 48.8886C54.3262 51.6066 57.6093 52.9656 61.8489 52.9656C64.8994 52.9656 67.407 52.3245 69.3716 51.0425C71.3363 49.7604 72.6548 47.8886 73.3269 45.4271H78.4454C77.4631 49.3245 75.5501 52.3245 72.7065 54.4271C69.8628 56.4784 66.2178 57.504 61.7714 57.504Z" fill="black"/>
<path d="M93.8514 56.581L81.4428 19.3502H86.9491L94.3167 41.8117C94.7303 43.0425 95.1181 44.2989 95.48 45.581C95.8936 46.863 96.2814 48.2733 96.6433 49.8117C96.8501 48.8374 97.1086 47.8117 97.4188 46.7348C97.729 45.6066 98.0134 44.6066 98.2719 43.7348C98.5821 42.863 98.7889 42.222 98.8923 41.8117L106.338 19.3502H111.844L119.211 41.8117C119.367 42.3245 119.547 42.9143 119.754 43.581C119.961 44.1963 120.168 44.8374 120.375 45.504C120.582 46.1707 120.762 46.8886 120.918 47.6579C121.124 48.3758 121.331 49.0938 121.538 49.8117C121.797 48.7348 122.003 47.863 122.158 47.1963C122.314 46.4784 122.52 45.7348 122.779 44.9656C123.037 44.1963 123.373 43.1451 123.787 41.8117L131.232 19.3502H136.816L124.097 56.581H118.901L111.146 33.1963C110.681 31.8117 110.267 30.5297 109.905 29.3502C109.595 28.1707 109.336 27.0168 109.129 25.8886C108.871 26.9143 108.561 28.0169 108.199 29.1963C107.889 30.3245 107.475 31.6579 106.958 33.1963L99.2026 56.581H93.8514Z" fill="black"/>
<path d="M143.5 56.581V19.3502H148.851V56.581H143.5ZM146.137 9.11941C145.051 9.11941 144.121 8.7348 143.345 7.96557C142.57 7.19634 142.182 6.27326 142.182 5.19634C142.182 4.11941 142.57 3.19634 143.345 2.4271C144.121 1.60659 145.051 1.19634 146.137 1.19634C147.223 1.19634 148.153 1.60659 148.929 2.4271C149.756 3.19634 150.17 4.11941 150.17 5.19634C150.17 6.27326 149.756 7.19634 148.929 7.96557C148.153 8.7348 147.223 9.11941 146.137 9.11941Z" fill="black"/>
<path d="M165.362 56.581H160.011V19.3502H164.664L165.439 25.8117C166.68 23.4527 168.438 21.6322 170.713 20.3502C173.04 19.0169 175.573 18.3502 178.313 18.3502C183.484 18.3502 187.206 19.7604 189.481 22.581C191.756 25.4015 192.894 29.1451 192.894 33.8117V56.581H187.542V34.9656C187.542 30.6066 186.612 27.5553 184.75 25.8117C182.941 24.0681 180.485 23.1963 177.383 23.1963C173.557 23.1963 170.584 24.4784 168.464 27.0425C166.396 29.5553 165.362 32.9143 165.362 37.1194V56.581Z" fill="black"/>
<path d="M218.294 57.504C214.675 57.504 211.573 56.6579 208.988 54.9656C206.403 53.2733 204.412 50.9656 203.016 48.0425C201.62 45.0681 200.922 41.7348 200.922 38.0425C200.922 34.2989 201.62 30.9399 203.016 27.9656C204.412 24.9912 206.403 22.6579 208.988 20.9656C211.625 19.222 214.804 18.3502 218.527 18.3502C221.629 18.3502 224.369 19.0169 226.748 20.3502C229.178 21.6835 231.039 23.7092 232.331 26.4271V0.504028H237.683V56.581H233.029L232.487 48.9656C231.142 51.8374 229.229 53.9912 226.748 55.4271C224.266 56.8117 221.448 57.504 218.294 57.504ZM219.225 52.6579C222.017 52.6579 224.369 52.0425 226.282 50.8117C228.195 49.5297 229.669 47.7861 230.703 45.581C231.737 43.3245 232.254 40.7604 232.254 37.8886C232.254 35.0168 231.737 32.4784 230.703 30.2733C229.669 28.0681 228.195 26.3245 226.282 25.0425C224.369 23.7604 222.017 23.1194 219.225 23.1194C216.536 23.1194 214.21 23.7604 212.245 25.0425C210.332 26.3245 208.858 28.0681 207.824 30.2733C206.842 32.4784 206.351 35.0168 206.351 37.8886C206.351 40.7604 206.842 43.3245 207.824 45.581C208.858 47.7861 210.332 49.5297 212.245 50.8117C214.21 52.0425 216.536 52.6579 219.225 52.6579Z" fill="black"/>
<path d="M253.425 57.4271C252.132 57.4271 250.995 56.9656 250.012 56.0425C249.03 55.1194 248.539 54.0169 248.539 52.7348C248.539 51.4015 249.03 50.2733 250.012 49.3502C250.995 48.3758 252.132 47.8886 253.425 47.8886C254.769 47.8886 255.907 48.3758 256.837 49.3502C257.819 50.2733 258.311 51.4015 258.311 52.7348C258.311 54.0169 257.819 55.1194 256.837 56.0425C255.907 56.9656 254.769 57.4271 253.425 57.4271Z" fill="black"/>
</svg>
