<svg width="17" height="16" viewBox="0 0 17 16" fill="none" xmlns="http://www.w3.org/2000/svg">
<path d="M1.48707 15.4321C1.17724 15.5655 0.882906 15.5361 0.60406 15.3441C0.325214 15.1528 0.185791 14.8738 0.185791 14.5071V10.7821C0.185791 10.5488 0.247757 10.3405 0.371689 10.1571C0.49562 9.9738 0.666026 9.85714 0.882906 9.80714L7.62169 8.00714L0.882906 6.20714C0.666026 6.15714 0.49562 6.04047 0.371689 5.85714C0.247757 5.6738 0.185791 5.46547 0.185791 5.23214V1.50714C0.185791 1.14047 0.325214 0.861136 0.60406 0.669136C0.882906 0.477802 1.17724 0.448802 1.48707 0.582135L15.8012 7.08214C16.1885 7.26547 16.3821 7.5738 16.3821 8.00714C16.3821 8.44047 16.1885 8.7488 15.8012 8.93214L1.48707 15.4321Z" fill="#444444"/>
</svg>
